<svg width="20" height="20" viewBox="0 0 20 20" fill="none" xmlns="http://www.w3.org/2000/svg">
<path d="M9 6.98438V4.96875H10.9688V6.98438H9ZM4.3125 15.6562C5.90625 17.2188 7.79688 18 9.98438 18C12.1719 18 14.0469 17.2188 15.6094 15.6562C17.2031 14.0625 18 12.1719 18 9.98438C18 7.79688 17.2031 5.92188 15.6094 4.35938C14.0469 2.76562 12.1719 1.96875 9.98438 1.96875C7.79688 1.96875 5.90625 2.76562 4.3125 4.35938C2.75 5.92188 1.96875 7.79688 1.96875 9.98438C1.96875 12.1719 2.75 14.0625 4.3125 15.6562ZM2.90625 2.95312C4.875 0.984375 7.23438 0 9.98438 0C12.7344 0 15.0781 0.984375 17.0156 2.95312C18.9844 4.89062 19.9688 7.23438 19.9688 9.98438C19.9688 12.7344 18.9844 15.0938 17.0156 17.0625C15.0781 19 12.7344 19.9688 9.98438 19.9688C7.23438 19.9688 4.875 19 2.90625 17.0625C0.96875 15.0938 0 12.7344 0 9.98438C0 7.23438 0.96875 4.89062 2.90625 2.95312ZM9 15V9H10.9688V15H9Z" fill="black" fill-opacity="0.3"/>
</svg>
