<svg width="39" height="26" viewBox="0 0 39 26" fill="none" xmlns="http://www.w3.org/2000/svg">
<path fill-rule="evenodd" clip-rule="evenodd" d="M32 19H12C8.1 19 5 15.9 5 12C5 8.1 8.1 5 12 5H32C35.9 5 39 8.1 39 12C39 15.9 35.9 19 32 19Z" fill="black" fill-opacity="0.06"/>
<g filter="url(#filter0_ddd_23_815)">
<path fill-rule="evenodd" clip-rule="evenodd" d="M13 22C18.5228 22 23 17.5228 23 12C23 6.47715 18.5228 2 13 2C7.47715 2 3 6.47715 3 12C3 17.5228 7.47715 22 13 22Z" fill="white"/>
</g>
<defs>
<filter id="filter0_ddd_23_815" x="0" y="0" width="26" height="26" filterUnits="userSpaceOnUse" color-interpolation-filters="sRGB">
<feFlood flood-opacity="0" result="BackgroundImageFix"/>
<feColorMatrix in="SourceAlpha" type="matrix" values="0 0 0 0 0 0 0 0 0 0 0 0 0 0 0 0 0 0 127 0" result="hardAlpha"/>
<feOffset dy="1"/>
<feGaussianBlur stdDeviation="1.5"/>
<feColorMatrix type="matrix" values="0 0 0 0 0 0 0 0 0 0 0 0 0 0 0 0 0 0 0.2 0"/>
<feBlend mode="normal" in2="BackgroundImageFix" result="effect1_dropShadow_23_815"/>
<feColorMatrix in="SourceAlpha" type="matrix" values="0 0 0 0 0 0 0 0 0 0 0 0 0 0 0 0 0 0 127 0" result="hardAlpha"/>
<feOffset dy="2"/>
<feGaussianBlur stdDeviation="1"/>
<feColorMatrix type="matrix" values="0 0 0 0 0 0 0 0 0 0 0 0 0 0 0 0 0 0 0.12 0"/>
<feBlend mode="normal" in2="effect1_dropShadow_23_815" result="effect2_dropShadow_23_815"/>
<feColorMatrix in="SourceAlpha" type="matrix" values="0 0 0 0 0 0 0 0 0 0 0 0 0 0 0 0 0 0 127 0" result="hardAlpha"/>
<feOffset/>
<feGaussianBlur stdDeviation="1"/>
<feColorMatrix type="matrix" values="0 0 0 0 0 0 0 0 0 0 0 0 0 0 0 0 0 0 0.14 0"/>
<feBlend mode="normal" in2="effect2_dropShadow_23_815" result="effect3_dropShadow_23_815"/>
<feBlend mode="normal" in="SourceGraphic" in2="effect3_dropShadow_23_815" result="shape"/>
</filter>
</defs>
</svg>
