<svg width="24" height="16" viewBox="0 0 24 16" fill="none" xmlns="http://www.w3.org/2000/svg">
<path d="M9.89062 5.89062C10.4844 5.29688 11.1875 5 12 5C12.8125 5 13.5156 5.29688 14.1094 5.89062C14.7031 6.48438 15 7.1875 15 8C15 8.8125 14.7031 9.51562 14.1094 10.1094C13.5156 10.7031 12.8125 11 12 11C11.1875 11 10.4844 10.7031 9.89062 10.1094C9.29688 9.51562 9 8.8125 9 8C9 7.1875 9.29688 6.48438 9.89062 5.89062ZM8.4375 11.5625C9.4375 12.5312 10.625 13.0156 12 13.0156C13.375 13.0156 14.5469 12.5312 15.5156 11.5625C16.5156 10.5625 17.0156 9.375 17.0156 8C17.0156 6.625 16.5156 5.45312 15.5156 4.48438C14.5469 3.48438 13.375 2.98438 12 2.98438C10.625 2.98438 9.4375 3.48438 8.4375 4.48438C7.46875 5.45312 6.98438 6.625 6.98438 8C6.98438 9.375 7.46875 10.5625 8.4375 11.5625ZM5.29688 2.5625C7.29688 1.1875 9.53125 0.5 12 0.5C14.4688 0.5 16.7031 1.1875 18.7031 2.5625C20.7031 3.9375 22.1406 5.75 23.0156 8C22.1406 10.25 20.7031 12.0625 18.7031 13.4375C16.7031 14.8125 14.4688 15.5 12 15.5C9.53125 15.5 7.29688 14.8125 5.29688 13.4375C3.29688 12.0625 1.85938 10.25 0.984375 8C1.85938 5.75 3.29688 3.9375 5.29688 2.5625Z" fill="#007AFF"/>
</svg>
