<svg width="23" height="19" viewBox="0 0 23 19" fill="none" xmlns="http://www.w3.org/2000/svg">
<path d="M11.8594 6H12C12.8125 6 13.5156 6.29688 14.1094 6.89062C14.7031 7.48438 15 8.1875 15 9V9.1875L11.8594 6ZM7.54688 6.79688C7.17188 7.54688 6.98438 8.28125 6.98438 9C6.98438 10.375 7.46875 11.5625 8.4375 12.5625C9.4375 13.5312 10.625 14.0156 12 14.0156C12.7188 14.0156 13.4531 13.8281 14.2031 13.4531L12.6562 11.9062C12.4062 11.9688 12.1875 12 12 12C11.1875 12 10.4844 11.7031 9.89062 11.1094C9.29688 10.5156 9 9.8125 9 9C9 8.8125 9.03125 8.59375 9.09375 8.34375L7.54688 6.79688ZM2.01562 1.26562L3.28125 0L21 17.7188L19.7344 18.9844C19.5781 18.8281 19.0781 18.3438 18.2344 17.5312C17.4219 16.7188 16.7969 16.0938 16.3594 15.6562C15.0156 16.2188 13.5625 16.5 12 16.5C9.53125 16.5 7.29688 15.8125 5.29688 14.4375C3.29688 13.0625 1.85938 11.25 0.984375 9C1.76562 7.0625 3.01562 5.40625 4.73438 4.03125C4.35938 3.65625 3.82812 3.125 3.14062 2.4375C2.48438 1.75 2.10938 1.35938 2.01562 1.26562ZM12 3.98438C11.375 3.98438 10.7656 4.10938 10.1719 4.35938L8.01562 2.20312C9.23438 1.73438 10.5625 1.5 12 1.5C14.4688 1.5 16.6875 2.1875 18.6562 3.5625C20.6562 4.9375 22.0938 6.75 22.9688 9C22.2188 10.8438 21.0781 12.4219 19.5469 13.7344L16.6406 10.8281C16.8906 10.2344 17.0156 9.625 17.0156 9C17.0156 7.625 16.5156 6.45312 15.5156 5.48438C14.5469 4.48438 13.375 3.98438 12 3.98438Z" fill="#007AFF"/>
</svg>
